<?xml version="1.0" encoding="utf-8"?>
<!-- Generator: Adobe Illustrator 16.0.3, SVG Export Plug-In . SVG Version: 6.00 Build 0)  -->
<!DOCTYPE svg PUBLIC "-//W3C//DTD SVG 1.1//EN" "http://www.w3.org/Graphics/SVG/1.1/DTD/svg11.dtd">
<svg version="1.1" id="Layer_1" xmlns="http://www.w3.org/2000/svg" xmlns:xlink="http://www.w3.org/1999/xlink" x="0px" y="0px"
	 width="627.899px" height="563.001px" viewBox="-220.783 -197.963 627.899 563.001"
	 enable-background="new -220.783 -197.963 627.899 563.001" xml:space="preserve">
<path fill="#37B1FF" d="M-54.497-134.1c-14.009,3.74-28.42-4.587-32.172-18.594c-3.73-14.016,4.594-28.424,18.604-32.167
	c32.118-8.594,65.385-10.632,97.899-6.356c32.485,4.273,64.122,14.891,92.991,31.548c28.859,16.663,53.863,38.766,73.805,64.743
	c19.909,25.953,34.764,55.795,43.393,87.974c3.738,14-4.581,28.424-18.6,32.164c-14.006,3.74-28.429-4.583-32.164-18.598
	c-6.845-25.52-18.605-49.158-34.362-69.687c-15.736-20.497-35.507-37.966-58.382-51.177c-22.861-13.199-47.877-21.599-73.475-24.969
	C-2.56-142.588-28.908-140.947-54.497-134.1"/>
<path fill="#9966FF" d="M207.878-153.14c-10.277-10.213-10.313-26.827-0.099-37.094s26.826-10.312,37.106-0.097
	c23.635,23.634,42.073,51.443,54.581,81.615l0.55,1.436c12.202,29.939,18.662,62.135,18.662,94.849
	c0,33.209-6.645,65.861-19.212,96.183l-0.033,0.084c-12.475,30.186-30.916,57.98-54.548,81.621
	c-10.28,10.219-26.889,10.169-37.106-0.104c-10.208-10.255-10.179-26.876,0.099-37.081c18.593-18.605,33.168-40.602,43.106-64.56
	c9.868-23.779,15.081-49.633,15.081-76.142c0-26.045-5.041-51.482-14.552-74.926l-0.529-1.211
	C241.046-112.543,226.471-134.542,207.878-153.14"/>
<path fill="#FA33A3" d="M355.46,64.476c3.748-14.01,18.154-22.348,32.157-18.598c14.012,3.742,22.348,18.154,18.603,32.163
	c-8.615,32.177-23.483,62.05-43.398,88.001c-19.87,25.902-44.877,47.967-73.832,64.667c-28.82,16.707-60.472,27.323-92.958,31.595
	c-32.503,4.278-65.77,2.248-97.894-6.348c-14.014-3.752-22.34-18.168-18.6-32.171c3.75-14.012,18.158-22.341,32.171-18.596
	c25.582,6.842,51.938,8.486,77.537,5.113c25.602-3.366,50.605-11.777,73.476-24.97h0.1c22.745-13.124,42.493-30.575,58.279-51.146
	C336.851,113.66,348.624,90.006,355.46,64.476"/>
<path fill="#FF0046" d="M-53.672,174.013c-3.73-14.006,4.584-28.426,18.604-32.168c14.009-3.741,28.421,4.585,32.169,18.59
	c6.824,25.507,18.59,49.171,34.357,69.705c15.717,20.495,35.504,37.963,58.367,51.165c22.865,13.203,47.865,21.607,73.47,24.971
	s51.975,1.73,77.557-5.124c14.006-3.738,28.416,4.584,32.167,18.597c3.742,14.009-4.584,28.432-18.596,32.17
	c-32.138,8.609-65.414,10.633-97.91,6.358c-32.497-4.275-64.143-14.895-92.994-31.549c-28.855-16.654-53.86-38.746-73.791-64.733
	C-30.182,236.023-45.059,206.177-53.672,174.013"/>
<path fill="#FF7900" d="M-58.535,1.604c10.264-10.221,26.887-10.173,37.094,0.09c10.214,10.267,10.17,26.887-0.094,37.094
	c-18.638,18.639-33.212,40.6-43.1,64.453c-9.866,23.815-15.096,49.717-15.096,76.254c0,26.526,5.23,52.422,15.096,76.23
	c9.871,23.875,24.469,45.877,43.173,64.581c10.221,10.268,10.177,26.88-0.094,37.094c-10.264,10.215-26.887,10.182-37.095-0.092
	c-23.518-23.546-41.939-51.35-54.485-81.638c-12.548-30.321-19.207-62.985-19.207-96.176c0-33.204,6.659-65.868,19.228-96.196
	C-100.586,53.016-82.133,25.192-58.535,1.604"/>
<path fill="#FFCC00" d="M88.208-88.9c14.003,3.746,22.336,18.155,18.601,32.17c-3.748,14.007-18.165,22.334-32.177,18.595
	C49.065-44.99,22.7-46.631-2.896-43.261c-25.62,3.373-50.62,11.763-73.478,24.969c-22.874,13.203-42.662,30.678-58.392,51.183
	c-15.746,20.539-27.527,44.178-34.357,69.692c-3.743,14.012-18.153,22.345-32.164,18.6c-14.009-3.738-22.343-18.152-18.601-32.164
	c8.612-32.181,23.473-62.031,43.402-87.974c19.939-25.978,44.942-48.093,73.794-64.757C-73.837-80.369-42.188-90.983-9.69-95.253
	C22.818-99.533,56.088-97.504,88.208-88.9"/>
</svg>
